# xmcd
#
# Track frame offsets:
#	150
#	23347
#	49052
#	67234
#	81027
#	103597
#	126637
#	144662
#	161903
#	182279
#
# Disc length: 2781 seconds
#
# Revision: 0
# Processed by: cddbd v1.4PL0 Copyright (c) Steve Scherf et al.
# Submitted via: dBpowerAMP V4.0
#
DISCID=870adb0a
DTITLE=Mishi Donovan - The Spirit Within
DYEAR=1900
DGENRE=Blues
TTITLE0=Letting Go
TTITLE1=Forgotten Yesterday
TTITLE2=Ne'Ya
TTITLE3=Shadow Dancer
TTITLE4=First Nations
TTITLE5=Vison Quest
TTITLE6=Go on and Run
TTITLE7=Bartender's Song
TTITLE8=As Seen Through a Child's Eyes
TTITLE9=Does it Take Death
EXTD=Janusz
EXTT0=
EXTT1=
EXTT2=
EXTT3=
EXTT4=
EXTT5=
EXTT6=
EXTT7=
EXTT8=
EXTT9=
PLAYORDER=
